<?xml version="1.0" encoding="iso-8859-1"?>
<!-- Generator: Adobe Illustrator 19.0.0, SVG Export Plug-In . SVG Version: 6.00 Build 0)  -->
<svg version="1.1" id="Layer_1" xmlns="http://www.w3.org/2000/svg" xmlns:xlink="http://www.w3.org/1999/xlink" x="0px" y="0px"
	 viewBox="0 0 512 512" style="enable-background:new 0 0 512 512;" xml:space="preserve">
<g transform="translate(1 1)">
	<g>
		<path d="M442.733,186.733c-34.656,0-63.475,26.178-67.71,59.733H134.977c-2.337-18.513-12.151-34.774-26.311-45.637l95.502-88.134
			c12.524,13.991,30.692,22.837,50.833,22.837c37.547,0,68.267-30.72,68.267-68.267S292.547-1,255-1
			c-37.547,0-68.267,30.72-68.267,68.267c0,11.244,2.772,21.866,7.64,31.244L93.189,191.888c-8.004-3.313-16.757-5.155-25.922-5.155
			C29.72,186.733-1,217.453-1,255s30.72,68.267,68.267,68.267c34.656,0,63.475-26.178,67.71-59.733h240.046
			c2.336,18.509,12.146,34.766,26.302,45.629l-95.44,88.201c-12.526-14.025-30.716-22.897-50.885-22.897
			c-37.547,0-68.267,30.72-68.267,68.267S217.453,511,255,511c37.547,0,68.267-30.72,68.267-68.267
			c0-11.214-2.758-21.81-7.602-31.17l101.129-93.459c8.009,3.318,16.768,5.162,25.94,5.162C480.28,323.267,511,292.547,511,255
			C511,217.453,480.28,186.733,442.733,186.733z M255,16.067c28.16,0,51.2,23.04,51.2,51.2c0,28.16-23.04,51.2-51.2,51.2
			c-28.16,0-51.2-23.04-51.2-51.2C203.8,39.107,226.84,16.067,255,16.067z M255,493.933c-28.16,0-51.2-23.04-51.2-51.2
			c0-28.16,23.04-51.2,51.2-51.2c28.16,0,51.2,23.04,51.2,51.2C306.2,470.893,283.16,493.933,255,493.933z M67.267,306.2
			c-28.16,0-51.2-23.04-51.2-51.2c0-28.16,23.04-51.2,51.2-51.2c28.16,0,51.2,23.04,51.2,51.2
			C118.467,283.16,95.427,306.2,67.267,306.2z M442.733,306.2c-28.16,0-51.2-23.04-51.2-51.2c0-28.16,23.04-51.2,51.2-51.2
			c28.16,0,51.2,23.04,51.2,51.2C493.933,283.16,470.893,306.2,442.733,306.2z"/>
	</g>
</g>
<g>
</g>
<g>
</g>
<g>
</g>
<g>
</g>
<g>
</g>
<g>
</g>
<g>
</g>
<g>
</g>
<g>
</g>
<g>
</g>
<g>
</g>
<g>
</g>
<g>
</g>
<g>
</g>
<g>
</g>
</svg>
